<?xml version="1.0" encoding="UTF-8" standalone="no"?>
<svg width="500" height="300" xmlns="http://www.w3.org/2000/svg" version="1.1">
<g><polygon points="0,0 43,0 86,0 86,50 43,75 0,50" style="fill: #0f1784" /><polygon points="86,0 129,0 172,0 172,50 129,75 86,50" style="fill: #420f84" /><polygon points="172,0 215,0 258,0 258,50 215,75 172,50" style="fill: #0f5284" /><polygon points="258,0 301,0 344,0 344,50 301,75 258,50" style="fill: #0f3284" /><polygon points="344,0 387,0 430,0 430,50 387,75 344,50" style="fill: #270f84" /><polygon points="430,0 473,0 516,0 516,50 473,75 430,50" style="fill: #0f1784" /><polygon points="0,75 0,50 43,75 43,125 0,150 0,125" style="fill: #420f84" /><polygon points="43,75 86,50 129,75 129,125 86,150 43,125" style="fill: #0f5284" /><polygon points="129,75 172,50 215,75 215,125 172,150 129,125" style="fill: #0f3284" /><polygon points="215,75 258,50 301,75 301,125 258,150 215,125" style="fill: #270f84" /><polygon points="301,75 344,50 387,75 387,125 344,150 301,125" style="fill: #0f1784" /><polygon points="387,75 430,50 473,75 473,125 430,150 387,125" style="fill: #420f84" /><polygon points="473,75 516,50 559,75 559,125 516,150 473,125" style="fill: #0f5284" /><polygon points="0,150 43,125 86,150 86,200 43,225 0,200" style="fill: #0f3284" /><polygon points="86,150 129,125 172,150 172,200 129,225 86,200" style="fill: #270f84" /><polygon points="172,150 215,125 258,150 258,200 215,225 172,200" style="fill: #0f1784" /><polygon points="258,150 301,125 344,150 344,200 301,225 258,200" style="fill: #420f84" /><polygon points="344,150 387,125 430,150 430,200 387,225 344,200" style="fill: #0f5284" /><polygon points="430,150 473,125 516,150 516,200 473,225 430,200" style="fill: #0f3284" /><polygon points="0,225 0,200 43,225 43,275 0,300 0,275" style="fill: #270f84" /><polygon points="43,225 86,200 129,225 129,275 86,300 43,275" style="fill: #0f1784" /><polygon points="129,225 172,200 215,225 215,275 172,300 129,275" style="fill: #420f84" /><polygon points="215,225 258,200 301,225 301,275 258,300 215,275" style="fill: #0f5284" /><polygon points="301,225 344,200 387,225 387,275 344,300 301,275" style="fill: #0f3284" /><polygon points="387,225 430,200 473,225 473,275 430,300 387,275" style="fill: #270f84" /><polygon points="473,225 516,200 559,225 559,275 516,300 473,275" style="fill: #0f1784" /><polygon points="0,300 43,275 86,300 86,350 43,375 0,350" style="fill: #420f84" /><polygon points="86,300 129,275 172,300 172,350 129,375 86,350" style="fill: #0f5284" /><polygon points="172,300 215,275 258,300 258,350 215,375 172,350" style="fill: #0f3284" /><polygon points="258,300 301,275 344,300 344,350 301,375 258,350" style="fill: #270f84" /><polygon points="344,300 387,275 430,300 430,350 387,375 344,350" style="fill: #0f1784" /><polygon points="430,300 473,275 516,300 516,350 473,375 430,350" style="fill: #420f84" /></g>
</svg>
