<?xml version="1.0" encoding="UTF-8" standalone="no"?>
<svg width="500" height="300" xmlns="http://www.w3.org/2000/svg" version="1.1">
<g><rect width="50" height="50" x="0" y="0" style="fill: #0f1784" /><rect width="50" height="50" x="50" y="0" style="fill: #420f84" /><rect width="50" height="50" x="100" y="0" style="fill: #0f5284" /><rect width="50" height="50" x="150" y="0" style="fill: #0f3284" /><rect width="50" height="50" x="200" y="0" style="fill: #270f84" /><rect width="50" height="50" x="250" y="0" style="fill: #0f6d84" /><rect width="50" height="50" x="300" y="0" style="fill: #5d0f84" /><rect width="50" height="50" x="350" y="0" style="fill: #0f1784" /><rect width="50" height="50" x="400" y="0" style="fill: #420f84" /><rect width="50" height="50" x="450" y="0" style="fill: #0f5284" /><rect width="50" height="50" x="500" y="0" style="fill: #0f3284" /><rect width="50" height="50" x="0" y="50" style="fill: #270f84" /><rect width="50" height="50" x="50" y="50" style="fill: #0f6d84" /><rect width="50" height="50" x="100" y="50" style="fill: #5d0f84" /><rect width="50" height="50" x="150" y="50" style="fill: #0f1784" /><rect width="50" height="50" x="200" y="50" style="fill: #420f84" /><rect width="50" height="50" x="250" y="50" style="fill: #0f5284" /><rect width="50" height="50" x="300" y="50" style="fill: #0f3284" /><rect width="50" height="50" x="350" y="50" style="fill: #270f84" /><rect width="50" height="50" x="400" y="50" style="fill: #0f6d84" /><rect width="50" height="50" x="450" y="50" style="fill: #5d0f84" /><rect width="50" height="50" x="500" y="50" style="fill: #0f1784" /><rect width="50" height="50" x="0" y="100" style="fill: #420f84" /><rect width="50" height="50" x="50" y="100" style="fill: #0f5284" /><rect width="50" height="50" x="100" y="100" style="fill: #0f3284" /><rect width="50" height="50" x="150" y="100" style="fill: #270f84" /><rect width="50" height="50" x="200" y="100" style="fill: #0f6d84" /><rect width="50" height="50" x="250" y="100" style="fill: #5d0f84" /><rect width="50" height="50" x="300" y="100" style="fill: #0f1784" /><rect width="50" height="50" x="350" y="100" style="fill: #420f84" /><rect width="50" height="50" x="400" y="100" style="fill: #0f5284" /><rect width="50" height="50" x="450" y="100" style="fill: #0f3284" /><rect width="50" height="50" x="500" y="100" style="fill: #270f84" /><rect width="50" height="50" x="0" y="150" style="fill: #0f6d84" /><rect width="50" height="50" x="50" y="150" style="fill: #5d0f84" /><rect width="50" height="50" x="100" y="150" style="fill: #0f1784" /><rect width="50" height="50" x="150" y="150" style="fill: #420f84" /><rect width="50" height="50" x="200" y="150" style="fill: #0f5284" /><rect width="50" height="50" x="250" y="150" style="fill: #0f3284" /><rect width="50" height="50" x="300" y="150" style="fill: #270f84" /><rect width="50" height="50" x="350" y="150" style="fill: #0f6d84" /><rect width="50" height="50" x="400" y="150" style="fill: #5d0f84" /><rect width="50" height="50" x="450" y="150" style="fill: #0f1784" /><rect width="50" height="50" x="500" y="150" style="fill: #420f84" /><rect width="50" height="50" x="0" y="200" style="fill: #0f5284" /><rect width="50" height="50" x="50" y="200" style="fill: #0f3284" /><rect width="50" height="50" x="100" y="200" style="fill: #270f84" /><rect width="50" height="50" x="150" y="200" style="fill: #0f6d84" /><rect width="50" height="50" x="200" y="200" style="fill: #5d0f84" /><rect width="50" height="50" x="250" y="200" style="fill: #0f1784" /><rect width="50" height="50" x="300" y="200" style="fill: #420f84" /><rect width="50" height="50" x="350" y="200" style="fill: #0f5284" /><rect width="50" height="50" x="400" y="200" style="fill: #0f3284" /><rect width="50" height="50" x="450" y="200" style="fill: #270f84" /><rect width="50" height="50" x="500" y="200" style="fill: #0f6d84" /><rect width="50" height="50" x="0" y="250" style="fill: #5d0f84" /><rect width="50" height="50" x="50" y="250" style="fill: #0f1784" /><rect width="50" height="50" x="100" y="250" style="fill: #420f84" /><rect width="50" height="50" x="150" y="250" style="fill: #0f5284" /><rect width="50" height="50" x="200" y="250" style="fill: #0f3284" /><rect width="50" height="50" x="250" y="250" style="fill: #270f84" /><rect width="50" height="50" x="300" y="250" style="fill: #0f6d84" /><rect width="50" height="50" x="350" y="250" style="fill: #5d0f84" /><rect width="50" height="50" x="400" y="250" style="fill: #0f1784" /><rect width="50" height="50" x="450" y="250" style="fill: #420f84" /><rect width="50" height="50" x="500" y="250" style="fill: #0f5284" /></g>
</svg>
